{"asset":{"generator":"T-FLEX CAD 17.0.74.0","version":"2.0"},"scene":0,"scenes":[{"nodes":[0]}],"cameras":[{"type":"orthographic","orthographic":{"xmag":0.37802988290786743,"ymag":0.37802988290786743,"zfar":2.7335569858551025,"znear":1.822371244430542}}],"nodes":[{"children":[1,5,9]},{"children":[2],"translation":[0.0,0.0,0.0],"rotation":[0.0,0.0,0.0,1.0],"scale":[1.0,1.0,1.0]},{"children":[3,4]},{"mesh":0},{"mesh":1},{"children":[6],"translation":[0.0,0.0,0.0],"rotation":[0.0,0.0,0.0,1.0],"scale":[1.0,1.0,1.0]},{"children":[7,8]},{"mesh":2},{"mesh":3},{"children":[10],"translation":[0.0,0.0,0.0],"rotation":[0.0,0.0,0.0,1.0],"scale":[1.0,1.0,1.0]},{"children":[11,12]},{"mesh":4},{"mesh":5},{"camera":0,"translation":[-2.0635621547698975,0.29431119561195374,0.9888614416122437],"rotation":[0.36172062158584595,-0.41512376070022583,-0.6852954626083374,0.47665563225746155]}],"meshes":[{"primitives":[{"attributes":{"POSITION":1,"NORMAL":2,"TEXCOORD_0":3},"indices":0,"mode":4,"material":0}]},{"primitives":[{"attributes":{"POSITION":5},"indices":4,"mode":1,"material":1}]},{"primitives":[{"attributes":{"POSITION":7,"NORMAL":8,"TEXCOORD_0":9},"indices":6,"mode":4,"material":2}]},{"primitives":[{"attributes":{"POSITION":11},"indices":10,"mode":1,"material":3}]},{"primitives":[{"attributes":{"POSITION":13,"NORMAL":14,"TEXCOORD_0":15},"indices":12,"mode":4,"material":4}]},{"primitives":[{"attributes":{"POSITION":17},"indices":16,"mode":1,"material":5}]}],"accessors":[{"bufferView":0,"byteOffset":0,"componentType":5125,"count":6084,"type":"SCALAR"},{"bufferView":1,"byteOffset":0,"componentType":5126,"count":1422,"type":"VEC3","min":[-0.05999999865889549,-0.20000000298023224,0.0],"max":[0.029999999329447746,-0.15000000596046448,0.2199999988079071]},{"bufferView":2,"byteOffset":0,"componentType":5126,"count":1422,"type":"VEC3","min":[-1.0,-1.0,-1.0],"max":[1.0,1.0,1.0]},{"bufferView":3,"byteOffset":0,"componentType":5126,"count":1422,"type":"VEC2","min":[-0.19853553175926208,-0.21853552758693695],"max":[0.19853553175926208,0.0]},{"bufferView":4,"byteOffset":0,"componentType":5125,"count":630,"type":"SCALAR"},{"bufferView":5,"byteOffset":0,"componentType":5126,"count":1422,"type":"VEC3","min":[-0.05999999865889549,-0.20000000298023224,0.0],"max":[0.029999999329447746,-0.15000000596046448,0.2199999988079071]},{"bufferView":6,"byteOffset":0,"componentType":5125,"count":5322,"type":"SCALAR"},{"bufferView":7,"byteOffset":0,"componentType":5126,"count":1276,"type":"VEC3","min":[-0.05999999865889549,0.0,0.0],"max":[0.029999999329447746,0.05000000074505806,0.2199999988079071]},{"bufferView":8,"byteOffset":0,"componentType":5126,"count":1276,"type":"VEC3","min":[-1.0,-1.0,-1.0],"max":[1.0,1.0,1.0]},{"bufferView":9,"byteOffset":0,"componentType":5126,"count":1276,"type":"VEC2","min":[-0.058505285531282425,-0.21853552758693695],"max":[0.05999999865889549,0.04804380610585213]},{"bufferView":10,"byteOffset":0,"componentType":5125,"count":616,"type":"SCALAR"},{"bufferView":11,"byteOffset":0,"componentType":5126,"count":1276,"type":"VEC3","min":[-0.05999999865889549,0.0,0.0],"max":[0.029999999329447746,0.05000000074505806,0.2199999988079071]},{"bufferView":12,"byteOffset":0,"componentType":5125,"count":9564,"type":"SCALAR"},{"bufferView":13,"byteOffset":0,"componentType":5126,"count":4720,"type":"VEC3","min":[-0.032999999821186066,-0.17499999701976776,0.0],"max":[0.003000000026077032,-0.07500000298023224,0.2630000114440918]},{"bufferView":14,"byteOffset":0,"componentType":5126,"count":4720,"type":"VEC3","min":[-1.0,-1.0,-1.0],"max":[1.0,1.0,1.0]},{"bufferView":15,"byteOffset":0,"componentType":5126,"count":4720,"type":"VEC2","min":[-0.17499999701976776,-0.2630000114440918],"max":[0.17499999701976776,0.0]},{"bufferView":16,"byteOffset":0,"componentType":5125,"count":4712,"type":"SCALAR"},{"bufferView":17,"byteOffset":0,"componentType":5126,"count":4720,"type":"VEC3","min":[-0.032999999821186066,-0.17499999701976776,0.0],"max":[0.003000000026077032,-0.07500000298023224,0.2630000114440918]}],"bufferViews":[{"buffer":0,"byteOffset":0,"byteLength":24336,"target":34963},{"buffer":1,"byteOffset":0,"byteLength":17064,"target":34962},{"buffer":2,"byteOffset":0,"byteLength":17064,"target":34962},{"buffer":3,"byteOffset":0,"byteLength":11376,"target":34962},{"buffer":4,"byteOffset":0,"byteLength":2520,"target":34963},{"buffer":5,"byteOffset":0,"byteLength":17064,"target":34962},{"buffer":6,"byteOffset":0,"byteLength":21288,"target":34963},{"buffer":7,"byteOffset":0,"byteLength":15312,"target":34962},{"buffer":8,"byteOffset":0,"byteLength":15312,"target":34962},{"buffer":9,"byteOffset":0,"byteLength":10208,"target":34962},{"buffer":10,"byteOffset":0,"byteLength":2464,"target":34963},{"buffer":11,"byteOffset":0,"byteLength":15312,"target":34962},{"buffer":12,"byteOffset":0,"byteLength":38256,"target":34963},{"buffer":13,"byteOffset":0,"byteLength":56640,"target":34962},{"buffer":14,"byteOffset":0,"byteLength":56640,"target":34962},{"buffer":15,"byteOffset":0,"byteLength":37760,"target":34962},{"buffer":16,"byteOffset":0,"byteLength":18848,"target":34963},{"buffer":17,"byteOffset":0,"byteLength":56640,"target":34962}],"buffers":[{"byteLength":24336,"uri":"data:application/octet-stream;base64,"},{"byteLength":17064,"uri":"data:application/octet-stream;base64,"},{"byteLength":17064,"uri":"data:application/octet-stream;base64,"},{"byteLength":11376,"uri":"data:application/octet-stream;base64,"},{"byteLength":2520,"uri":"data:application/octet-stream;base64,"},{"byteLength":17064,"uri":"data:application/octet-stream;base64,"},{"byteLength":21288,"uri":"data:application/octet-stream;base64,"},{"byteLength":15312,"uri":"data:application/octet-stream;base64,"},{"byteLength":15312,"uri":"data:application/octet-stream;base64,"},{"byteLength":10208,"uri":"data:application/octet-stream;base64,"},{"byteLength":2464,"uri":"data:application/octet-stream;base64,"},{"byteLength":15312,"uri":"data:application/octet-stream;base64,"},{"byteLength":38256,"uri":"data:application/octet-stream;base64,"},{"byteLength":56640,"uri":"data:application/octet-stream;base64,"},{"byteLength":56640,"uri":"data:application/octet-stream;base64,"},{"byteLength":37760,"uri":"data:application/octet-stream;base64,"},{"byteLength":18848,"uri":"data:application/octet-stream;base64,"},{"byteLength":56640,"uri":"data:application/octet-stream;base64,"}],"materials":[{"pbrMetallicRoughness":{"baseColorFactor":[0.6392157077789307,0.6549019813537598,0.6392157077789307,1.0],"roughnessFactor":1.0,"metallicFactor":0.0}},{"pbrMetallicRoughness":{"baseColorFactor":[0.0,0.0,0.0,1.0],"roughnessFactor":0.7999999970197678,"metallicFactor":0.0}},{"pbrMetallicRoughness":{"baseColorFactor":[0.6392157077789307,0.6549019813537598,0.6392157077789307,1.0],"roughnessFactor":1.0,"metallicFactor":0.0}},{"pbrMetallicRoughness":{"baseColorFactor":[0.0,0.0,0.0,1.0],"roughnessFactor":0.7999999970197678,"metallicFactor":0.0}},{"pbrMetallicRoughness":{"baseColorFactor":[0.7137255072593689,0.7137255072593689,0.7137255072593689,1.0],"roughnessFactor":1.0,"metallicFactor":0.10000000149011612}},{"pbrMetallicRoughness":{"baseColorFactor":[0.0,0.0,0.0,1.0],"roughnessFactor":0.7999999970197678,"metallicFactor":0.0}}],"tflex":{}}